<?xml version="1.0" encoding="utf-8"?>
<!-- Generator: Adobe Illustrator 27.9.0, SVG Export Plug-In . SVG Version: 6.00 Build 0)  -->
<svg version="1.1" id="Layer_1" xmlns="http://www.w3.org/2000/svg" xmlns:xlink="http://www.w3.org/1999/xlink" x="0px" y="0px"
	 viewBox="0 0 360 360" style="enable-background:new 0 0 360 360;" xml:space="preserve">
<style type="text/css">
	.st0{fill:#FFFFFF;}
	.st1{fill:#1462A2;}
	.st2{fill:none;stroke:#000000;stroke-width:8;stroke-miterlimit:10;}
</style>
<rect x="100.71" y="168.73" class="st0" width="0.19" height="0.58"/>
<circle class="st1" cx="83.4" cy="169.69" r="26.6"/>
<circle class="st2" cx="83.63" cy="169.69" r="35.21"/>
<rect x="83.04" y="164.86" class="st0" width="46.7" height="11.77"/>
<rect x="77.75" y="153.33" class="st0" width="11.77" height="33.51"/>
<path d="M137.75,150.88c0-8.42,4.8-14.46,13.76-14.46c7.73,0,11.86,4.46,12.53,10.85h-7.3c-0.52-3-1.78-5.19-5.55-5.19
	c-4.72,0-6.15,3.54-6.15,8.69c0,5.19,1.43,8.73,6.15,8.73c3.81,0,5.08-2.19,5.55-5.27h7.3c-0.63,6.31-4.92,10.92-12.73,10.92
	C142.31,165.15,137.75,159.07,137.75,150.88z"/>
<path d="M179.19,144.84v5.39c-0.52-0.08-0.87-0.12-1.31-0.12c-2.86,0-5.47,1.73-5.47,5.27v9.16h-6.35v-19.7h6.35v3.23h0.08
	c0.99-2.08,2.74-3.39,4.96-3.39C178,144.69,178.48,144.69,179.19,144.84z"/>
<path d="M179.54,159.38c0-4.08,3.45-5.65,7.77-6.54c2.22-0.46,5.35-0.77,5.35-2.73c0-1.08-0.87-1.77-2.7-1.77
	c-2.34,0-3.41,0.92-3.61,2.85h-6.03c0.2-3.77,3.05-7,9.92-7c5.51,0,8.57,2.15,8.57,8.19V160c0,1.04,0.12,1.5,0.75,1.5
	c0.16,0,0.28,0,0.52-0.04v2.92c-1.27,0.23-2.58,0.35-3.49,0.35c-2.54,0-3.49-0.92-3.81-2.58h-0.08c-1.43,1.73-3.77,3-6.7,3
	C182.04,165.15,179.54,162.88,179.54,159.38z M192.67,156.57v-1.65c-0.83,0.31-1.78,0.54-3.45,0.92c-2.34,0.54-3.17,1.5-3.17,2.89
	c0,1.5,0.99,2.19,2.62,2.19C191.2,160.92,192.67,158.84,192.67,156.57z"/>
<path d="M201.27,154.69c0-6.12,4.05-10.5,10.31-10.5c5.87,0,9.44,3.38,9.95,8h-6.38c-0.2-1.62-0.91-3.39-3.45-3.39
	c-2.62,0-3.93,2.19-3.93,5.89s1.27,5.89,3.93,5.89c2.5,0,3.25-1.65,3.45-3.46h6.38c-0.32,4.69-3.97,8.08-9.8,8.08
	C205.32,165.19,201.27,160.84,201.27,154.69z"/>
<path d="M236.92,164.54l-4.8-8.12l-2.22,2.27v5.85h-6.34v-27.5h6.34v15.12l6.78-7.31h6.74l-7.18,7.39l8.01,12.31H236.92z"/>
<path d="M147.19,203.08v-21.85h-8.25v-5.65h23.6v5.65h-8.21v21.85H147.19z"/>
<path d="M184.19,189.78v13.31h-6.35v-11.35c0-2.96-1.07-3.96-3.17-3.96c-2.42,0-3.81,1.19-3.81,3.92v11.39h-6.35v-27.5h6.35v10.66
	h0.08c1.07-1.81,3.05-3.46,6.66-3.46C181.53,182.77,184.19,185.27,184.19,189.78z"/>
<path d="M207.26,194.89h-14.59c0,2.73,1.98,4.23,4.36,4.23c2.26,0,3.21-1,3.61-2h6.46c-1.15,4-4.52,6.62-10.23,6.62
	c-6.58,0-10.55-4.35-10.55-10.5c0-5.77,3.73-10.5,10.55-10.5c6.9,0,10.39,3.96,10.39,11.23V194.89z M200.88,191.08
	c0-2.54-1.55-3.89-4.01-3.89c-2.42,0-4,1.35-4.16,3.89H200.88z"/>
<path d="M216.18,189.43c0-8.42,4.8-14.46,13.76-14.46c7.73,0,11.86,4.46,12.53,10.85h-7.3c-0.52-3-1.78-5.19-5.55-5.19
	c-4.72,0-6.15,3.54-6.15,8.69c0,5.19,1.43,8.73,6.15,8.73c3.81,0,5.08-2.19,5.55-5.27h7.3c-0.63,6.31-4.92,10.92-12.73,10.92
	C220.74,203.7,216.18,197.62,216.18,189.43z"/>
<path d="M281.49,175.58h6.35v27.5h-6.35v-1.96h-0.08c-0.79,1.04-2.93,2.58-5.87,2.58c-5.39,0-8.84-4-8.84-10.46
	s3.45-10.46,8.84-10.46c2.93,0,5.08,1.54,5.87,2.58h0.08V175.58z M281.37,193.24c0-3.85-1.51-5.85-4.08-5.85
	c-2.58,0-4.08,2-4.08,5.85s1.51,5.85,4.08,5.85C279.86,199.08,281.37,197.08,281.37,193.24z"/>
<path d="M311.03,194.89h-14.59c0,2.73,1.98,4.23,4.36,4.23c2.26,0,3.21-1,3.61-2h6.46c-1.15,4-4.52,6.62-10.23,6.62
	c-6.58,0-10.55-4.35-10.55-10.5c0-5.77,3.73-10.5,10.55-10.5c6.9,0,10.39,3.96,10.39,11.23V194.89z M304.65,191.08
	c0-2.54-1.55-3.89-4.01-3.89c-2.42,0-4,1.35-4.16,3.89H304.65z"/>
<path class="st1" d="M260.63,193.27c-0.05,0.03-0.08,0.04-0.11,0.06c-0.3,0.16-0.58,0.35-0.83,0.59c-0.28,0.26-0.49,0.57-0.66,0.91
	c-0.09,0.18-0.16,0.37-0.22,0.57c-0.06,0.22-0.11,0.43-0.13,0.66c-0.02,0.21-0.03,0.43-0.03,0.65v1.44c0,0.32,0,0.65-0.05,0.97
	c0,0.09-0.03,0.19-0.04,0.28c-0.02,0.2-0.07,0.39-0.13,0.58c-0.05,0.18-0.12,0.35-0.22,0.52c-0.14,0.25-0.33,0.45-0.58,0.6
	c-0.09,0.05-0.18,0.1-0.27,0.15c-0.03,0.02-0.04,0.04-0.03,0.07c0.03,0.07,0.05,0.14,0.08,0.21c0.05,0.12,0.09,0.25,0.14,0.37
	c0.06,0.16,0.11,0.32,0.17,0.47c0.06,0.17,0.12,0.33,0.18,0.5c0.03,0.08,0.06,0.17,0.09,0.25c0.02,0.06,0.03,0.07,0.1,0.06
	c0.03,0,0.07-0.02,0.1-0.03c0.17-0.06,0.35-0.11,0.52-0.17c0.2-0.08,0.39-0.16,0.58-0.25c0.3-0.14,0.59-0.31,0.86-0.52
	c0.29-0.22,0.55-0.47,0.77-0.77c0.16-0.22,0.31-0.46,0.43-0.71c0.09-0.19,0.17-0.38,0.24-0.58c0.06-0.16,0.1-0.32,0.13-0.49
	c0.04-0.18,0.08-0.35,0.1-0.53c0.04-0.26,0.05-0.53,0.05-0.79v-1.7c0-0.25,0.02-0.5,0.06-0.74c0.04-0.24,0.12-0.47,0.23-0.68
	c0.24-0.42,0.61-0.63,1.07-0.7c0.08,0,0.17,0,0.26-0.02c0.07,0,0.08,0,0.08-0.08v-2.35c0-0.06-0.03-0.09-0.09-0.09
	c-0.19,0-0.38-0.04-0.57-0.1c-0.3-0.1-0.54-0.28-0.71-0.55c-0.18-0.28-0.27-0.58-0.3-0.91c-0.02-0.21-0.03-0.42-0.03-0.63
	c0-0.57,0-1.14,0-1.71c0-0.16,0-0.31-0.02-0.47c-0.02-0.21-0.04-0.43-0.09-0.63c-0.03-0.13-0.05-0.27-0.09-0.4
	c-0.05-0.17-0.11-0.34-0.18-0.51c-0.12-0.33-0.29-0.63-0.49-0.92c-0.28-0.41-0.64-0.74-1.05-1.02c-0.28-0.19-0.57-0.35-0.88-0.48
	c-0.14-0.06-0.28-0.11-0.42-0.17c-0.13-0.05-0.25-0.09-0.38-0.14c-0.06-0.02-0.12-0.04-0.17-0.05c-0.06,0-0.07,0-0.09,0.05
	c-0.02,0.05-0.04,0.1-0.06,0.16c-0.06,0.16-0.12,0.32-0.17,0.48c-0.06,0.16-0.12,0.32-0.18,0.48c-0.06,0.17-0.12,0.33-0.18,0.5
	c-0.03,0.08-0.06,0.16-0.09,0.25c0.03,0.02,0.06,0.03,0.08,0.05c0.08,0.05,0.17,0.08,0.25,0.14c0.34,0.23,0.57,0.54,0.71,0.92
	c0.05,0.14,0.09,0.29,0.13,0.44c0.04,0.17,0.07,0.33,0.1,0.5c0.04,0.27,0.06,0.55,0.06,0.83v1.51c0,0.18,0,0.37,0,0.55
	c0,0.25,0.04,0.5,0.1,0.74c0.05,0.22,0.13,0.43,0.22,0.64c0.12,0.27,0.27,0.53,0.46,0.76c0.29,0.36,0.65,0.64,1.05,0.87
	C260.51,193.21,260.56,193.24,260.63,193.27L260.63,193.27z"/>
<path class="st1" d="M248.66,193.22c0.06,0.04,0.1,0.07,0.15,0.09c0.4,0.22,0.76,0.51,1.05,0.87c0.19,0.23,0.34,0.48,0.46,0.76
	c0.09,0.21,0.17,0.42,0.22,0.64c0.06,0.24,0.09,0.49,0.1,0.74c0,0.18,0,0.37,0,0.55v1.51c0,0.28,0.02,0.55,0.06,0.83
	c0.02,0.17,0.06,0.34,0.1,0.5c0.04,0.15,0.08,0.3,0.13,0.44c0.14,0.38,0.37,0.7,0.71,0.92c0.08,0.05,0.17,0.09,0.25,0.14
	c0.03,0,0.05,0.03,0.08,0.05c-0.03,0.09-0.06,0.17-0.09,0.25c-0.06,0.17-0.12,0.33-0.18,0.5c-0.06,0.16-0.12,0.32-0.18,0.48
	c-0.06,0.16-0.12,0.32-0.17,0.48c-0.02,0.05-0.04,0.1-0.06,0.16c-0.02,0.06-0.03,0.06-0.09,0.05c-0.06-0.01-0.12-0.03-0.17-0.05
	c-0.13-0.04-0.26-0.09-0.38-0.14c-0.14-0.05-0.28-0.11-0.42-0.17c-0.31-0.14-0.6-0.29-0.88-0.48c-0.41-0.28-0.77-0.61-1.05-1.02
	c-0.2-0.29-0.37-0.59-0.49-0.92l-0.18-0.51c-0.04-0.13-0.06-0.27-0.09-0.4c-0.05-0.21-0.07-0.42-0.09-0.63
	c0-0.16-0.02-0.31-0.02-0.47v-1.71c0-0.21,0-0.42-0.03-0.63c-0.04-0.32-0.13-0.63-0.3-0.91c-0.17-0.27-0.4-0.45-0.71-0.55
	c-0.19-0.06-0.38-0.08-0.57-0.1c-0.06,0-0.09-0.03-0.09-0.09v-2.35c0-0.07,0-0.08,0.08-0.08c0.09,0,0.17,0,0.26-0.02
	c0.47-0.06,0.84-0.27,1.07-0.7c0.12-0.21,0.19-0.44,0.23-0.68c0.04-0.25,0.06-0.49,0.06-0.74v-1.7c0-0.26,0.02-0.53,0.05-0.79
	c0.02-0.18,0.06-0.36,0.1-0.53c0.04-0.16,0.08-0.33,0.13-0.49c0.07-0.2,0.15-0.39,0.24-0.58c0.12-0.25,0.26-0.49,0.43-0.71
	c0.22-0.3,0.48-0.55,0.77-0.77c0.27-0.2,0.55-0.38,0.86-0.52c0.19-0.09,0.38-0.18,0.58-0.25c0.17-0.07,0.35-0.12,0.52-0.17
	c0.03,0,0.07-0.02,0.1-0.03c0.06,0,0.07,0,0.1,0.06c0.03,0.08,0.06,0.17,0.09,0.25c0.06,0.17,0.12,0.33,0.18,0.5
	c0.06,0.16,0.11,0.32,0.17,0.47c0.05,0.12,0.09,0.25,0.14,0.37c0.03,0.07,0.05,0.14,0.08,0.21c0,0.04,0,0.05-0.03,0.07
	c-0.09,0.05-0.18,0.09-0.27,0.15c-0.24,0.15-0.43,0.36-0.58,0.6c-0.09,0.16-0.16,0.34-0.22,0.52c-0.06,0.19-0.11,0.38-0.13,0.58
	c0,0.09-0.03,0.19-0.04,0.28c-0.05,0.32-0.04,0.65-0.05,0.97v1.44c0,0.22,0,0.43-0.03,0.65s-0.07,0.44-0.13,0.66
	c-0.06,0.2-0.13,0.39-0.22,0.57c-0.17,0.34-0.38,0.65-0.66,0.91c-0.25,0.24-0.53,0.43-0.83,0.59
	C248.73,193.17,248.7,193.19,248.66,193.22L248.66,193.22z"/>
</svg>
